<svg id="svgQrWrapper" viewBox="0 0 300 300" xmlns="http://www.w3.org/2000/svg" xmlns:xlink="http://www.w3.org/1999/xlink" width="300" height="300" style="width: 100%; height: 100%; background-color: transparent;"><svg><g transform="translate(9, 9)scale(0.95)" fill="none"><svg width="300" height="300"><style>.background-color{ fill: #fff; }.dot-color{ fill: #211455; }.corners-square-color-0-0{ fill: #211455; }.corners-dot-color-0-0{ fill: #211455; }.corners-square-color-1-0{ fill: #211455; }.corners-dot-color-1-0{ fill: #211455; }.corners-square-color-0-1{ fill: #211455; }.corners-dot-color-0-1{ fill: #211455; }</style><defs/><g class="dot-color"><circle cx="10" cy="90" r="5" transform="rotate(0,10,90)"/><circle cx="10" cy="110" r="5" transform="rotate(0,10,110)"/><path d="M 5 125v 10h 10a 10 10, 0, 0, 0, -10 -10" transform="rotate(-90,10,130)"/><path d="M 5 135v 10h 5a 5 5, 0, 0, 0, 0 -10" transform="rotate(90,10,140)"/><path d="M 5 155v 10h 10a 10 10, 0, 0, 0, -10 -10" transform="rotate(-90,10,160)"/><rect x="5" y="165" width="10" height="10" transform="rotate(0,10,170)"/><rect x="5" y="175" width="10" height="10" transform="rotate(0,10,180)"/><path d="M 5 185v 10h 5a 5 5, 0, 0, 0, 0 -10" transform="rotate(90,10,190)"/><circle cx="10" cy="210" r="5" transform="rotate(0,10,210)"/><path d="M 15 95v 10h 5a 5 5, 0, 0, 0, 0 -10" transform="rotate(180,20,100)"/><rect x="15" y="125" width="10" height="10" transform="rotate(0,20,130)"/><path d="M 15 155v 10h 5a 5 5, 0, 0, 0, 0 -10" transform="rotate(0,20,160)"/><path d="M 15 195v 10h 5a 5 5, 0, 0, 0, 0 -10" transform="rotate(180,20,200)"/><path d="M 25 95v 10h 5a 5 5, 0, 0, 0, 0 -10" transform="rotate(0,30,100)"/><rect x="25" y="125" width="10" height="10" transform="rotate(0,30,130)"/><rect x="25" y="195" width="10" height="10" transform="rotate(0,30,200)"/><path d="M 25 205v 10h 5a 5 5, 0, 0, 0, 0 -10" transform="rotate(90,30,210)"/><path d="M 35 105v 10h 10a 10 10, 0, 0, 0, -10 -10" transform="rotate(-90,40,110)"/><rect x="35" y="115" width="10" height="10" transform="rotate(0,40,120)"/><path d="M 35 125v 10h 10a 10 10, 0, 0, 0, -10 -10" transform="rotate(90,40,130)"/><path d="M 35 165v 10h 10a 10 10, 0, 0, 0, -10 -10" transform="rotate(-90,40,170)"/><path d="M 35 175v 10h 5a 5 5, 0, 0, 0, 0 -10" transform="rotate(90,40,180)"/><rect x="35" y="195" width="10" height="10" transform="rotate(0,40,200)"/><path d="M 45 85v 10h 10a 10 10, 0, 0, 0, -10 -10" transform="rotate(-90,50,90)"/><rect x="45" y="95" width="10" height="10" transform="rotate(0,50,100)"/><rect x="45" y="105" width="10" height="10" transform="rotate(0,50,110)"/><path d="M 45 145v 10h 10a 10 10, 0, 0, 0, -10 -10" transform="rotate(-90,50,150)"/><rect x="45" y="155" width="10" height="10" transform="rotate(0,50,160)"/><rect x="45" y="165" width="10" height="10" transform="rotate(0,50,170)"/><path d="M 45 195v 10h 5a 5 5, 0, 0, 0, 0 -10" transform="rotate(0,50,200)"/><rect x="55" y="85" width="10" height="10" transform="rotate(0,60,90)"/><rect x="55" y="95" width="10" height="10" transform="rotate(0,60,100)"/><rect x="55" y="105" width="10" height="10" transform="rotate(0,60,110)"/><path d="M 55 125v 10h 10a 10 10, 0, 0, 0, -10 -10" transform="rotate(-90,60,130)"/><rect x="55" y="135" width="10" height="10" transform="rotate(0,60,140)"/><rect x="55" y="145" width="10" height="10" transform="rotate(0,60,150)"/><rect x="55" y="155" width="10" height="10" transform="rotate(0,60,160)"/><rect x="55" y="165" width="10" height="10" transform="rotate(0,60,170)"/><path d="M 55 185v 10h 5a 5 5, 0, 0, 0, 0 -10" transform="rotate(180,60,190)"/><path d="M 55 205v 10h 5a 5 5, 0, 0, 0, 0 -10" transform="rotate(180,60,210)"/><path d="M 65 85v 10h 5a 5 5, 0, 0, 0, 0 -10" transform="rotate(0,70,90)"/><rect x="65" y="105" width="10" height="10" transform="rotate(0,70,110)"/><path d="M 65 125v 10h 5a 5 5, 0, 0, 0, 0 -10" transform="rotate(0,70,130)"/><rect x="65" y="145" width="10" height="10" transform="rotate(0,70,150)"/><rect x="65" y="165" width="10" height="10" transform="rotate(0,70,170)"/><path d="M 65 185v 10h 5a 5 5, 0, 0, 0, 0 -10" transform="rotate(0,70,190)"/><rect x="65" y="205" width="10" height="10" transform="rotate(0,70,210)"/><path d="M 75 95v 10h 10a 10 10, 0, 0, 0, -10 -10" transform="rotate(-90,80,100)"/><rect x="75" y="105" width="10" height="10" transform="rotate(0,80,110)"/><path d="M 75 115v 10h 5a 5 5, 0, 0, 0, 0 -10" transform="rotate(90,80,120)"/><path d="M 75 145v 10h 5a 5 5, 0, 0, 0, 0 -10" transform="rotate(0,80,150)"/><path d="M 75 165v 10h 5a 5 5, 0, 0, 0, 0 -10" transform="rotate(0,80,170)"/><path d="M 75 205v 10h 5a 5 5, 0, 0, 0, 0 -10" transform="rotate(0,80,210)"/><path d="M 85 15v 10h 10a 10 10, 0, 0, 0, -10 -10" transform="rotate(-90,90,20)"/><rect x="85" y="25" width="10" height="10" transform="rotate(0,90,30)"/><rect x="85" y="35" width="10" height="10" transform="rotate(0,90,40)"/><rect x="85" y="45" width="10" height="10" transform="rotate(0,90,50)"/><rect x="85" y="55" width="10" height="10" transform="rotate(0,90,60)"/><rect x="85" y="65" width="10" height="10" transform="rotate(0,90,70)"/><path d="M 85 75v 10h 10a 10 10, 0, 0, 0, -10 -10" transform="rotate(180,90,80)"/><path d="M 85 95v 10h 5a 5 5, 0, 0, 0, 0 -10" transform="rotate(0,90,100)"/><path d="M 85 125v 10h 5a 5 5, 0, 0, 0, 0 -10" transform="rotate(-90,90,130)"/><path d="M 85 135v 10h 5a 5 5, 0, 0, 0, 0 -10" transform="rotate(90,90,140)"/><path d="M 85 155v 10h 5a 5 5, 0, 0, 0, 0 -10" transform="rotate(180,90,160)"/><circle cx="90" cy="190" r="5" transform="rotate(0,90,190)"/><path d="M 85 235v 10h 10a 10 10, 0, 0, 0, -10 -10" transform="rotate(-90,90,240)"/><path d="M 85 245v 10h 10a 10 10, 0, 0, 0, -10 -10" transform="rotate(180,90,250)"/><path d="M 85 285v 10h 5a 5 5, 0, 0, 0, 0 -10" transform="rotate(180,90,290)"/><rect x="95" y="15" width="10" height="10" transform="rotate(0,100,20)"/><rect x="95" y="25" width="10" height="10" transform="rotate(0,100,30)"/><rect x="95" y="35" width="10" height="10" transform="rotate(0,100,40)"/><path d="M 95 45v 10h 10a 10 10, 0, 0, 0, -10 -10" transform="rotate(90,100,50)"/><rect x="95" y="75" width="10" height="10" transform="rotate(0,100,80)"/><path d="M 95 85v 10h 5a 5 5, 0, 0, 0, 0 -10" transform="rotate(90,100,90)"/><path d="M 95 105v 10h 10a 10 10, 0, 0, 0, -10 -10" transform="rotate(-90,100,110)"/><path d="M 95 115v 10h 5a 5 5, 0, 0, 0, 0 -10" transform="rotate(90,100,120)"/><path d="M 95 155v 10h 10a 10 10, 0, 0, 0, -10 -10" transform="rotate(0,100,160)"/><path d="M 95 165v 10h 5a 5 5, 0, 0, 0, 0 -10" transform="rotate(90,100,170)"/><path d="M 95 225v 10h 10a 10 10, 0, 0, 0, -10 -10" transform="rotate(-90,100,230)"/><rect x="95" y="235" width="10" height="10" transform="rotate(0,100,240)"/><rect x="95" y="245" width="10" height="10" transform="rotate(0,100,250)"/><rect x="95" y="255" width="10" height="10" transform="rotate(0,100,260)"/><path d="M 95 265v 10h 10a 10 10, 0, 0, 0, -10 -10" transform="rotate(180,100,270)"/><path d="M 95 285v 10h 5a 5 5, 0, 0, 0, 0 -10" transform="rotate(0,100,290)"/><rect x="105" y="15" width="10" height="10" transform="rotate(0,110,20)"/><rect x="105" y="25" width="10" height="10" transform="rotate(0,110,30)"/><rect x="105" y="35" width="10" height="10" transform="rotate(0,110,40)"/><path d="M 105 55v 10h 5a 5 5, 0, 0, 0, 0 -10" transform="rotate(-90,110,60)"/><rect x="105" y="65" width="10" height="10" transform="rotate(0,110,70)"/><rect x="105" y="75" width="10" height="10" transform="rotate(0,110,80)"/><path d="M 105 95v 10h 10a 10 10, 0, 0, 0, -10 -10" transform="rotate(-90,110,100)"/><rect x="105" y="105" width="10" height="10" transform="rotate(0,110,110)"/><path d="M 105 135v 10h 5a 5 5, 0, 0, 0, 0 -10" transform="rotate(-90,110,140)"/><path d="M 105 145v 10h 5a 5 5, 0, 0, 0, 0 -10" transform="rotate(90,110,150)"/><circle cx="110" cy="190" r="5" transform="rotate(0,110,190)"/><path d="M 105 215v 10h 10a 10 10, 0, 0, 0, -10 -10" transform="rotate(-90,110,220)"/><rect x="105" y="225" width="10" height="10" transform="rotate(0,110,230)"/><path d="M 105 245v 10h 10a 10 10, 0, 0, 0, -10 -10" transform="rotate(0,110,250)"/><rect x="105" y="255" width="10" height="10" transform="rotate(0,110,260)"/><path d="M 105 265v 10h 10a 10 10, 0, 0, 0, -10 -10" transform="rotate(90,110,270)"/><path d="M 115 5v 10h 5a 5 5, 0, 0, 0, 0 -10" transform="rotate(-90,120,10)"/><rect x="115" y="15" width="10" height="10" transform="rotate(0,120,20)"/><rect x="115" y="35" width="10" height="10" transform="rotate(0,120,40)"/><rect x="115" y="75" width="10" height="10" transform="rotate(0,120,80)"/><rect x="115" y="95" width="10" height="10" transform="rotate(0,120,100)"/><path d="M 115 105v 10h 10a 10 10, 0, 0, 0, -10 -10" transform="rotate(90,120,110)"/><circle cx="120" cy="200" r="5" transform="rotate(0,120,200)"/><rect x="115" y="215" width="10" height="10" transform="rotate(0,120,220)"/><rect x="115" y="225" width="10" height="10" transform="rotate(0,120,230)"/><path d="M 115 235v 10h 10a 10 10, 0, 0, 0, -10 -10" transform="rotate(180,120,240)"/><path d="M 115 275v 10h 5a 5 5, 0, 0, 0, 0 -10" transform="rotate(180,120,280)"/><path d="M 125 15v 10h 5a 5 5, 0, 0, 0, 0 -10" transform="rotate(0,130,20)"/><rect x="125" y="35" width="10" height="10" transform="rotate(0,130,40)"/><path d="M 125 45v 10h 10a 10 10, 0, 0, 0, -10 -10" transform="rotate(180,130,50)"/><path d="M 125 65v 10h 5a 5 5, 0, 0, 0, 0 -10" transform="rotate(-90,130,70)"/><path d="M 125 75v 10h 10a 10 10, 0, 0, 0, -10 -10" transform="rotate(90,130,80)"/><rect x="125" y="95" width="10" height="10" transform="rotate(0,130,100)"/><rect x="125" y="215" width="10" height="10" transform="rotate(0,130,220)"/><path d="M 125 235v 10h 5a 5 5, 0, 0, 0, 0 -10" transform="rotate(0,130,240)"/><path d="M 125 255v 10h 10a 10 10, 0, 0, 0, -10 -10" transform="rotate(-90,130,260)"/><rect x="125" y="265" width="10" height="10" transform="rotate(0,130,270)"/><rect x="125" y="275" width="10" height="10" transform="rotate(0,130,280)"/><path d="M 125 285v 10h 10a 10 10, 0, 0, 0, -10 -10" transform="rotate(180,130,290)"/><path d="M 135 5v 10h 5a 5 5, 0, 0, 0, 0 -10" transform="rotate(180,140,10)"/><path d="M 135 25v 10h 10a 10 10, 0, 0, 0, -10 -10" transform="rotate(-90,140,30)"/><rect x="135" y="35" width="10" height="10" transform="rotate(0,140,40)"/><rect x="135" y="45" width="10" height="10" transform="rotate(0,140,50)"/><path d="M 135 55v 10h 10a 10 10, 0, 0, 0, -10 -10" transform="rotate(180,140,60)"/><path d="M 135 95v 10h 5a 5 5, 0, 0, 0, 0 -10" transform="rotate(0,140,100)"/><path d="M 135 195v 10h 5a 5 5, 0, 0, 0, 0 -10" transform="rotate(-90,140,200)"/><rect x="135" y="205" width="10" height="10" transform="rotate(0,140,210)"/><rect x="135" y="215" width="10" height="10" transform="rotate(0,140,220)"/><path d="M 135 225v 10h 5a 5 5, 0, 0, 0, 0 -10" transform="rotate(90,140,230)"/><path d="M 135 245v 10h 5a 5 5, 0, 0, 0, 0 -10" transform="rotate(-90,140,250)"/><path d="M 135 255v 10h 10a 10 10, 0, 0, 0, -10 -10" transform="rotate(90,140,260)"/><rect x="135" y="275" width="10" height="10" transform="rotate(0,140,280)"/><path d="M 135 285v 10h 10a 10 10, 0, 0, 0, -10 -10" transform="rotate(90,140,290)"/><rect x="145" y="5" width="10" height="10" transform="rotate(0,150,10)"/><path d="M 145 25v 10h 5a 5 5, 0, 0, 0, 0 -10" transform="rotate(0,150,30)"/><rect x="145" y="45" width="10" height="10" transform="rotate(0,150,50)"/><rect x="145" y="55" width="10" height="10" transform="rotate(0,150,60)"/><rect x="145" y="65" width="10" height="10" transform="rotate(0,150,70)"/><rect x="145" y="75" width="10" height="10" transform="rotate(0,150,80)"/><path d="M 145 85v 10h 10a 10 10, 0, 0, 0, -10 -10" transform="rotate(180,150,90)"/><circle cx="150" cy="110" r="5" transform="rotate(0,150,110)"/><rect x="145" y="205" width="10" height="10" transform="rotate(0,150,210)"/><path d="M 145 215v 10h 10a 10 10, 0, 0, 0, -10 -10" transform="rotate(90,150,220)"/><circle cx="150" cy="240" r="5" transform="rotate(0,150,240)"/><path d="M 145 275v 10h 5a 5 5, 0, 0, 0, 0 -10" transform="rotate(0,150,280)"/><rect x="155" y="5" width="10" height="10" transform="rotate(0,160,10)"/><path d="M 155 15v 10h 5a 5 5, 0, 0, 0, 0 -10" transform="rotate(90,160,20)"/><rect x="155" y="45" width="10" height="10" transform="rotate(0,160,50)"/><rect x="155" y="55" width="10" height="10" transform="rotate(0,160,60)"/><rect x="155" y="75" width="10" height="10" transform="rotate(0,160,80)"/><path d="M 155 85v 10h 10a 10 10, 0, 0, 0, -10 -10" transform="rotate(90,160,90)"/><circle cx="160" cy="190" r="5" transform="rotate(0,160,190)"/><path d="M 155 205v 10h 5a 5 5, 0, 0, 0, 0 -10" transform="rotate(0,160,210)"/><circle cx="160" cy="230" r="5" transform="rotate(0,160,230)"/><path d="M 155 245v 10h 5a 5 5, 0, 0, 0, 0 -10" transform="rotate(-90,160,250)"/><path d="M 155 255v 10h 10a 10 10, 0, 0, 0, -10 -10" transform="rotate(180,160,260)"/><rect x="165" y="5" width="10" height="10" transform="rotate(0,170,10)"/><path d="M 165 35v 10h 5a 5 5, 0, 0, 0, 0 -10" transform="rotate(-90,170,40)"/><rect x="165" y="45" width="10" height="10" transform="rotate(0,170,50)"/><rect x="165" y="55" width="10" height="10" transform="rotate(0,170,60)"/><rect x="165" y="65" width="10" height="10" transform="rotate(0,170,70)"/><rect x="165" y="75" width="10" height="10" transform="rotate(0,170,80)"/><path d="M 165 105v 10h 5a 5 5, 0, 0, 0, 0 -10" transform="rotate(180,170,110)"/><path d="M 165 195v 10h 5a 5 5, 0, 0, 0, 0 -10" transform="rotate(180,170,200)"/><path d="M 165 255v 10h 10a 10 10, 0, 0, 0, -10 -10" transform="rotate(0,170,260)"/><path d="M 165 265v 10h 5a 5 5, 0, 0, 0, 0 -10" transform="rotate(90,170,270)"/><path d="M 165 285v 10h 5a 5 5, 0, 0, 0, 0 -10" transform="rotate(180,170,290)"/><rect x="175" y="5" width="10" height="10" transform="rotate(0,180,10)"/><path d="M 175 15v 10h 5a 5 5, 0, 0, 0, 0 -10" transform="rotate(90,180,20)"/><path d="M 175 45v 10h 5a 5 5, 0, 0, 0, 0 -10" transform="rotate(0,180,50)"/><path d="M 175 75v 10h 5a 5 5, 0, 0, 0, 0 -10" transform="rotate(0,180,80)"/><path d="M 175 95v 10h 5a 5 5, 0, 0, 0, 0 -10" transform="rotate(-90,180,100)"/><rect x="175" y="105" width="10" height="10" transform="rotate(0,180,110)"/><path d="M 175 185v 10h 10a 10 10, 0, 0, 0, -10 -10" transform="rotate(-90,180,190)"/><rect x="175" y="195" width="10" height="10" transform="rotate(0,180,200)"/><path d="M 175 205v 10h 5a 5 5, 0, 0, 0, 0 -10" transform="rotate(90,180,210)"/><path d="M 175 225v 10h 10a 10 10, 0, 0, 0, -10 -10" transform="rotate(-90,180,230)"/><rect x="175" y="235" width="10" height="10" transform="rotate(0,180,240)"/><path d="M 175 245v 10h 10a 10 10, 0, 0, 0, -10 -10" transform="rotate(180,180,250)"/><path d="M 175 275v 10h 5a 5 5, 0, 0, 0, 0 -10" transform="rotate(-90,180,280)"/><path d="M 175 285v 10h 10a 10 10, 0, 0, 0, -10 -10" transform="rotate(90,180,290)"/><rect x="185" y="5" width="10" height="10" transform="rotate(0,190,10)"/><path d="M 185 25v 10h 5a 5 5, 0, 0, 0, 0 -10" transform="rotate(-90,190,30)"/><path d="M 185 35v 10h 10a 10 10, 0, 0, 0, -10 -10" transform="rotate(180,190,40)"/><circle cx="190" cy="70" r="5" transform="rotate(0,190,70)"/><circle cx="190" cy="90" r="5" transform="rotate(0,190,90)"/><rect x="185" y="105" width="10" height="10" transform="rotate(0,190,110)"/><rect x="185" y="115" width="10" height="10" transform="rotate(0,190,120)"/><rect x="185" y="125" width="10" height="10" transform="rotate(0,190,130)"/><path d="M 185 135v 10h 10a 10 10, 0, 0, 0, -10 -10" transform="rotate(180,190,140)"/><path d="M 185 155v 10h 10a 10 10, 0, 0, 0, -10 -10" transform="rotate(-90,190,160)"/><rect x="185" y="165" width="10" height="10" transform="rotate(0,190,170)"/><rect x="185" y="175" width="10" height="10" transform="rotate(0,190,180)"/><rect x="185" y="185" width="10" height="10" transform="rotate(0,190,190)"/><rect x="185" y="225" width="10" height="10" transform="rotate(0,190,230)"/><path d="M 185 245v 10h 10a 10 10, 0, 0, 0, -10 -10" transform="rotate(0,190,250)"/><rect x="185" y="255" width="10" height="10" transform="rotate(0,190,260)"/><path d="M 185 265v 10h 5a 5 5, 0, 0, 0, 0 -10" transform="rotate(90,190,270)"/><rect x="195" y="5" width="10" height="10" transform="rotate(0,200,10)"/><rect x="195" y="35" width="10" height="10" transform="rotate(0,200,40)"/><path d="M 195 55v 10h 5a 5 5, 0, 0, 0, 0 -10" transform="rotate(180,200,60)"/><rect x="195" y="105" width="10" height="10" transform="rotate(0,200,110)"/><path d="M 195 115v 10h 10a 10 10, 0, 0, 0, -10 -10" transform="rotate(90,200,120)"/><path d="M 195 135v 10h 5a 5 5, 0, 0, 0, 0 -10" transform="rotate(0,200,140)"/><rect x="195" y="155" width="10" height="10" transform="rotate(0,200,160)"/><rect x="195" y="185" width="10" height="10" transform="rotate(0,200,190)"/><path d="M 195 195v 10h 10a 10 10, 0, 0, 0, -10 -10" transform="rotate(180,200,200)"/><rect x="195" y="225" width="10" height="10" transform="rotate(0,200,230)"/><path d="M 195 255v 10h 5a 5 5, 0, 0, 0, 0 -10" transform="rotate(0,200,260)"/><path d="M 195 275v 10h 10a 10 10, 0, 0, 0, -10 -10" transform="rotate(-90,200,280)"/><path d="M 195 285v 10h 10a 10 10, 0, 0, 0, -10 -10" transform="rotate(180,200,290)"/><path d="M 205 5v 10h 5a 5 5, 0, 0, 0, 0 -10" transform="rotate(0,210,10)"/><path d="M 205 25v 10h 5a 5 5, 0, 0, 0, 0 -10" transform="rotate(-90,210,30)"/><rect x="205" y="35" width="10" height="10" transform="rotate(0,210,40)"/><rect x="205" y="45" width="10" height="10" transform="rotate(0,210,50)"/><rect x="205" y="55" width="10" height="10" transform="rotate(0,210,60)"/><rect x="205" y="65" width="10" height="10" transform="rotate(0,210,70)"/><rect x="205" y="75" width="10" height="10" transform="rotate(0,210,80)"/><rect x="205" y="85" width="10" height="10" transform="rotate(0,210,90)"/><rect x="205" y="95" width="10" height="10" transform="rotate(0,210,100)"/><rect x="205" y="105" width="10" height="10" transform="rotate(0,210,110)"/><path d="M 205 125v 10h 5a 5 5, 0, 0, 0, 0 -10" transform="rotate(180,210,130)"/><path d="M 205 145v 10h 5a 5 5, 0, 0, 0, 0 -10" transform="rotate(-90,210,150)"/><path d="M 205 155v 10h 10a 10 10, 0, 0, 0, -10 -10" transform="rotate(90,210,160)"/><path d="M 205 175v 10h 5a 5 5, 0, 0, 0, 0 -10" transform="rotate(-90,210,180)"/><rect x="205" y="185" width="10" height="10" transform="rotate(0,210,190)"/><rect x="205" y="195" width="10" height="10" transform="rotate(0,210,200)"/><rect x="205" y="205" width="10" height="10" transform="rotate(0,210,210)"/><rect x="205" y="215" width="10" height="10" transform="rotate(0,210,220)"/><rect x="205" y="225" width="10" height="10" transform="rotate(0,210,230)"/><rect x="205" y="235" width="10" height="10" transform="rotate(0,210,240)"/><path d="M 205 245v 10h 10a 10 10, 0, 0, 0, -10 -10" transform="rotate(180,210,250)"/><path d="M 205 265v 10h 5a 5 5, 0, 0, 0, 0 -10" transform="rotate(-90,210,270)"/><rect x="205" y="275" width="10" height="10" transform="rotate(0,210,280)"/><rect x="205" y="285" width="10" height="10" transform="rotate(0,210,290)"/><rect x="215" y="85" width="10" height="10" transform="rotate(0,220,90)"/><rect x="215" y="105" width="10" height="10" transform="rotate(0,220,110)"/><path d="M 215 125v 10h 5a 5 5, 0, 0, 0, 0 -10" transform="rotate(0,220,130)"/><path d="M 215 165v 10h 5a 5 5, 0, 0, 0, 0 -10" transform="rotate(180,220,170)"/><rect x="215" y="185" width="10" height="10" transform="rotate(0,220,190)"/><rect x="215" y="205" width="10" height="10" transform="rotate(0,220,210)"/><rect x="215" y="245" width="10" height="10" transform="rotate(0,220,250)"/><path d="M 215 255v 10h 5a 5 5, 0, 0, 0, 0 -10" transform="rotate(90,220,260)"/><path d="M 215 275v 10h 10a 10 10, 0, 0, 0, -10 -10" transform="rotate(0,220,280)"/><path d="M 215 285v 10h 10a 10 10, 0, 0, 0, -10 -10" transform="rotate(90,220,290)"/><rect x="225" y="85" width="10" height="10" transform="rotate(0,230,90)"/><rect x="225" y="105" width="10" height="10" transform="rotate(0,230,110)"/><path d="M 225 135v 10h 5a 5 5, 0, 0, 0, 0 -10" transform="rotate(-90,230,140)"/><rect x="225" y="145" width="10" height="10" transform="rotate(0,230,150)"/><rect x="225" y="155" width="10" height="10" transform="rotate(0,230,160)"/><path d="M 225 165v 10h 10a 10 10, 0, 0, 0, -10 -10" transform="rotate(90,230,170)"/><path d="M 225 185v 10h 10a 10 10, 0, 0, 0, -10 -10" transform="rotate(0,230,190)"/><rect x="225" y="195" width="10" height="10" transform="rotate(0,230,200)"/><rect x="225" y="205" width="10" height="10" transform="rotate(0,230,210)"/><circle cx="230" cy="230" r="5" transform="rotate(0,230,230)"/><rect x="225" y="245" width="10" height="10" transform="rotate(0,230,250)"/><rect x="235" y="85" width="10" height="10" transform="rotate(0,240,90)"/><rect x="235" y="105" width="10" height="10" transform="rotate(0,240,110)"/><path d="M 235 195v 10h 10a 10 10, 0, 0, 0, -10 -10" transform="rotate(0,240,200)"/><rect x="235" y="205" width="10" height="10" transform="rotate(0,240,210)"/><rect x="235" y="245" width="10" height="10" transform="rotate(0,240,250)"/><path d="M 235 255v 10h 10a 10 10, 0, 0, 0, -10 -10" transform="rotate(180,240,260)"/><path d="M 235 285v 10h 5a 5 5, 0, 0, 0, 0 -10" transform="rotate(180,240,290)"/><rect x="245" y="85" width="10" height="10" transform="rotate(0,250,90)"/><rect x="245" y="95" width="10" height="10" transform="rotate(0,250,100)"/><rect x="245" y="105" width="10" height="10" transform="rotate(0,250,110)"/><rect x="245" y="115" width="10" height="10" transform="rotate(0,250,120)"/><path d="M 245 125v 10h 5a 5 5, 0, 0, 0, 0 -10" transform="rotate(90,250,130)"/><path d="M 245 155v 10h 5a 5 5, 0, 0, 0, 0 -10" transform="rotate(180,250,160)"/><circle cx="250" cy="190" r="5" transform="rotate(0,250,190)"/><rect x="245" y="205" width="10" height="10" transform="rotate(0,250,210)"/><rect x="245" y="215" width="10" height="10" transform="rotate(0,250,220)"/><rect x="245" y="225" width="10" height="10" transform="rotate(0,250,230)"/><rect x="245" y="235" width="10" height="10" transform="rotate(0,250,240)"/><rect x="245" y="245" width="10" height="10" transform="rotate(0,250,250)"/><rect x="245" y="255" width="10" height="10" transform="rotate(0,250,260)"/><path d="M 245 265v 10h 10a 10 10, 0, 0, 0, -10 -10" transform="rotate(180,250,270)"/><path d="M 245 285v 10h 5a 5 5, 0, 0, 0, 0 -10" transform="rotate(0,250,290)"/><rect x="255" y="85" width="10" height="10" transform="rotate(0,260,90)"/><rect x="255" y="95" width="10" height="10" transform="rotate(0,260,100)"/><rect x="255" y="105" width="10" height="10" transform="rotate(0,260,110)"/><rect x="255" y="115" width="10" height="10" transform="rotate(0,260,120)"/><path d="M 255 145v 10h 10a 10 10, 0, 0, 0, -10 -10" transform="rotate(-90,260,150)"/><rect x="255" y="155" width="10" height="10" transform="rotate(0,260,160)"/><rect x="255" y="165" width="10" height="10" transform="rotate(0,260,170)"/><path d="M 255 175v 10h 10a 10 10, 0, 0, 0, -10 -10" transform="rotate(180,260,180)"/><path d="M 255 195v 10h 10a 10 10, 0, 0, 0, -10 -10" transform="rotate(-90,260,200)"/><rect x="255" y="205" width="10" height="10" transform="rotate(0,260,210)"/><rect x="255" y="215" width="10" height="10" transform="rotate(0,260,220)"/><rect x="255" y="235" width="10" height="10" transform="rotate(0,260,240)"/><rect x="255" y="265" width="10" height="10" transform="rotate(0,260,270)"/><rect x="265" y="85" width="10" height="10" transform="rotate(0,270,90)"/><path d="M 265 115v 10h 5a 5 5, 0, 0, 0, 0 -10" transform="rotate(0,270,120)"/><path d="M 265 135v 10h 5a 5 5, 0, 0, 0, 0 -10" transform="rotate(-90,270,140)"/><rect x="265" y="145" width="10" height="10" transform="rotate(0,270,150)"/><path d="M 265 175v 10h 5a 5 5, 0, 0, 0, 0 -10" transform="rotate(0,270,180)"/><rect x="265" y="195" width="10" height="10" transform="rotate(0,270,200)"/><rect x="265" y="205" width="10" height="10" transform="rotate(0,270,210)"/><rect x="265" y="215" width="10" height="10" transform="rotate(0,270,220)"/><rect x="265" y="225" width="10" height="10" transform="rotate(0,270,230)"/><rect x="265" y="235" width="10" height="10" transform="rotate(0,270,240)"/><rect x="265" y="245" width="10" height="10" transform="rotate(0,270,250)"/><rect x="265" y="255" width="10" height="10" transform="rotate(0,270,260)"/><rect x="265" y="265" width="10" height="10" transform="rotate(0,270,270)"/><path d="M 265 275v 10h 10a 10 10, 0, 0, 0, -10 -10" transform="rotate(180,270,280)"/><path d="M 275 85v 10h 10a 10 10, 0, 0, 0, -10 -10" transform="rotate(0,280,90)"/><rect x="275" y="95" width="10" height="10" transform="rotate(0,280,100)"/><path d="M 275 105v 10h 10a 10 10, 0, 0, 0, -10 -10" transform="rotate(180,280,110)"/><circle cx="280" cy="130" r="5" transform="rotate(0,280,130)"/><rect x="275" y="145" width="10" height="10" transform="rotate(0,280,150)"/><circle cx="280" cy="170" r="5" transform="rotate(0,280,170)"/><path d="M 275 185v 10h 5a 5 5, 0, 0, 0, 0 -10" transform="rotate(-90,280,190)"/><rect x="275" y="195" width="10" height="10" transform="rotate(0,280,200)"/><rect x="275" y="245" width="10" height="10" transform="rotate(0,280,250)"/><path d="M 275 275v 10h 5a 5 5, 0, 0, 0, 0 -10" transform="rotate(0,280,280)"/><path d="M 285 105v 10h 5a 5 5, 0, 0, 0, 0 -10" transform="rotate(0,290,110)"/><path d="M 285 145v 10h 5a 5 5, 0, 0, 0, 0 -10" transform="rotate(0,290,150)"/><circle cx="290" cy="180" r="5" transform="rotate(0,290,180)"/><path d="M 285 195v 10h 5a 5 5, 0, 0, 0, 0 -10" transform="rotate(0,290,200)"/><path d="M 285 245v 10h 10a 10 10, 0, 0, 0, -10 -10" transform="rotate(0,290,250)"/><rect x="285" y="255" width="10" height="10" transform="rotate(0,290,260)"/><path d="M 285 265v 10h 5a 5 5, 0, 0, 0, 0 -10" transform="rotate(90,290,270)"/></g><g class="corners-square-color-0-0"><path d="M 5 5v 10h 10a 10 10, 0, 0, 0, -10 -10" transform="rotate(-90,10,10)"/><rect x="5" y="15" width="10" height="10" transform="rotate(0,10,20)"/><rect x="5" y="25" width="10" height="10" transform="rotate(0,10,30)"/><rect x="5" y="35" width="10" height="10" transform="rotate(0,10,40)"/><rect x="5" y="45" width="10" height="10" transform="rotate(0,10,50)"/><rect x="5" y="55" width="10" height="10" transform="rotate(0,10,60)"/><path d="M 5 65v 10h 10a 10 10, 0, 0, 0, -10 -10" transform="rotate(180,10,70)"/><rect x="15" y="5" width="10" height="10" transform="rotate(0,20,10)"/><rect x="15" y="65" width="10" height="10" transform="rotate(0,20,70)"/><rect x="25" y="5" width="10" height="10" transform="rotate(0,30,10)"/><rect x="25" y="65" width="10" height="10" transform="rotate(0,30,70)"/><rect x="35" y="5" width="10" height="10" transform="rotate(0,40,10)"/><rect x="35" y="65" width="10" height="10" transform="rotate(0,40,70)"/><rect x="45" y="5" width="10" height="10" transform="rotate(0,50,10)"/><rect x="45" y="65" width="10" height="10" transform="rotate(0,50,70)"/><rect x="55" y="5" width="10" height="10" transform="rotate(0,60,10)"/><rect x="55" y="65" width="10" height="10" transform="rotate(0,60,70)"/><path d="M 65 5v 10h 10a 10 10, 0, 0, 0, -10 -10" transform="rotate(0,70,10)"/><rect x="65" y="15" width="10" height="10" transform="rotate(0,70,20)"/><rect x="65" y="25" width="10" height="10" transform="rotate(0,70,30)"/><rect x="65" y="35" width="10" height="10" transform="rotate(0,70,40)"/><rect x="65" y="45" width="10" height="10" transform="rotate(0,70,50)"/><rect x="65" y="55" width="10" height="10" transform="rotate(0,70,60)"/><path d="M 65 65v 10h 10a 10 10, 0, 0, 0, -10 -10" transform="rotate(90,70,70)"/></g><g class="corners-dot-color-0-0"><path d="M 25 25v 10h 10a 10 10, 0, 0, 0, -10 -10" transform="rotate(-90,30,30)"/><rect x="25" y="35" width="10" height="10" transform="rotate(0,30,40)"/><path d="M 25 45v 10h 10a 10 10, 0, 0, 0, -10 -10" transform="rotate(180,30,50)"/><rect x="35" y="25" width="10" height="10" transform="rotate(0,40,30)"/><rect x="35" y="35" width="10" height="10" transform="rotate(0,40,40)"/><rect x="35" y="45" width="10" height="10" transform="rotate(0,40,50)"/><path d="M 45 25v 10h 10a 10 10, 0, 0, 0, -10 -10" transform="rotate(0,50,30)"/><rect x="45" y="35" width="10" height="10" transform="rotate(0,50,40)"/><path d="M 45 45v 10h 10a 10 10, 0, 0, 0, -10 -10" transform="rotate(90,50,50)"/></g><g class="corners-square-color-1-0"><path d="M 225 5v 10h 10a 10 10, 0, 0, 0, -10 -10" transform="rotate(-90,230,10)"/><rect x="225" y="15" width="10" height="10" transform="rotate(0,230,20)"/><rect x="225" y="25" width="10" height="10" transform="rotate(0,230,30)"/><rect x="225" y="35" width="10" height="10" transform="rotate(0,230,40)"/><rect x="225" y="45" width="10" height="10" transform="rotate(0,230,50)"/><rect x="225" y="55" width="10" height="10" transform="rotate(0,230,60)"/><path d="M 225 65v 10h 10a 10 10, 0, 0, 0, -10 -10" transform="rotate(180,230,70)"/><rect x="235" y="5" width="10" height="10" transform="rotate(0,240,10)"/><rect x="235" y="65" width="10" height="10" transform="rotate(0,240,70)"/><rect x="245" y="5" width="10" height="10" transform="rotate(0,250,10)"/><rect x="245" y="65" width="10" height="10" transform="rotate(0,250,70)"/><rect x="255" y="5" width="10" height="10" transform="rotate(0,260,10)"/><rect x="255" y="65" width="10" height="10" transform="rotate(0,260,70)"/><rect x="265" y="5" width="10" height="10" transform="rotate(0,270,10)"/><rect x="265" y="65" width="10" height="10" transform="rotate(0,270,70)"/><rect x="275" y="5" width="10" height="10" transform="rotate(0,280,10)"/><rect x="275" y="65" width="10" height="10" transform="rotate(0,280,70)"/><path d="M 285 5v 10h 10a 10 10, 0, 0, 0, -10 -10" transform="rotate(0,290,10)"/><rect x="285" y="15" width="10" height="10" transform="rotate(0,290,20)"/><rect x="285" y="25" width="10" height="10" transform="rotate(0,290,30)"/><rect x="285" y="35" width="10" height="10" transform="rotate(0,290,40)"/><rect x="285" y="45" width="10" height="10" transform="rotate(0,290,50)"/><rect x="285" y="55" width="10" height="10" transform="rotate(0,290,60)"/><path d="M 285 65v 10h 10a 10 10, 0, 0, 0, -10 -10" transform="rotate(90,290,70)"/></g><g class="corners-dot-color-1-0"><path d="M 245 25v 10h 10a 10 10, 0, 0, 0, -10 -10" transform="rotate(-90,250,30)"/><rect x="245" y="35" width="10" height="10" transform="rotate(0,250,40)"/><path d="M 245 45v 10h 10a 10 10, 0, 0, 0, -10 -10" transform="rotate(180,250,50)"/><rect x="255" y="25" width="10" height="10" transform="rotate(0,260,30)"/><rect x="255" y="35" width="10" height="10" transform="rotate(0,260,40)"/><rect x="255" y="45" width="10" height="10" transform="rotate(0,260,50)"/><path d="M 265 25v 10h 10a 10 10, 0, 0, 0, -10 -10" transform="rotate(0,270,30)"/><rect x="265" y="35" width="10" height="10" transform="rotate(0,270,40)"/><path d="M 265 45v 10h 10a 10 10, 0, 0, 0, -10 -10" transform="rotate(90,270,50)"/></g><g class="corners-square-color-0-1"><path d="M 5 225v 10h 10a 10 10, 0, 0, 0, -10 -10" transform="rotate(-90,10,230)"/><rect x="5" y="235" width="10" height="10" transform="rotate(0,10,240)"/><rect x="5" y="245" width="10" height="10" transform="rotate(0,10,250)"/><rect x="5" y="255" width="10" height="10" transform="rotate(0,10,260)"/><rect x="5" y="265" width="10" height="10" transform="rotate(0,10,270)"/><rect x="5" y="275" width="10" height="10" transform="rotate(0,10,280)"/><path d="M 5 285v 10h 10a 10 10, 0, 0, 0, -10 -10" transform="rotate(180,10,290)"/><rect x="15" y="225" width="10" height="10" transform="rotate(0,20,230)"/><rect x="15" y="285" width="10" height="10" transform="rotate(0,20,290)"/><rect x="25" y="225" width="10" height="10" transform="rotate(0,30,230)"/><rect x="25" y="285" width="10" height="10" transform="rotate(0,30,290)"/><rect x="35" y="225" width="10" height="10" transform="rotate(0,40,230)"/><rect x="35" y="285" width="10" height="10" transform="rotate(0,40,290)"/><rect x="45" y="225" width="10" height="10" transform="rotate(0,50,230)"/><rect x="45" y="285" width="10" height="10" transform="rotate(0,50,290)"/><rect x="55" y="225" width="10" height="10" transform="rotate(0,60,230)"/><rect x="55" y="285" width="10" height="10" transform="rotate(0,60,290)"/><path d="M 65 225v 10h 10a 10 10, 0, 0, 0, -10 -10" transform="rotate(0,70,230)"/><rect x="65" y="235" width="10" height="10" transform="rotate(0,70,240)"/><rect x="65" y="245" width="10" height="10" transform="rotate(0,70,250)"/><rect x="65" y="255" width="10" height="10" transform="rotate(0,70,260)"/><rect x="65" y="265" width="10" height="10" transform="rotate(0,70,270)"/><rect x="65" y="275" width="10" height="10" transform="rotate(0,70,280)"/><path d="M 65 285v 10h 10a 10 10, 0, 0, 0, -10 -10" transform="rotate(90,70,290)"/></g><g class="corners-dot-color-0-1"><path d="M 25 245v 10h 10a 10 10, 0, 0, 0, -10 -10" transform="rotate(-90,30,250)"/><rect x="25" y="255" width="10" height="10" transform="rotate(0,30,260)"/><path d="M 25 265v 10h 10a 10 10, 0, 0, 0, -10 -10" transform="rotate(180,30,270)"/><rect x="35" y="245" width="10" height="10" transform="rotate(0,40,250)"/><rect x="35" y="255" width="10" height="10" transform="rotate(0,40,260)"/><rect x="35" y="265" width="10" height="10" transform="rotate(0,40,270)"/><path d="M 45 245v 10h 10a 10 10, 0, 0, 0, -10 -10" transform="rotate(0,50,250)"/><rect x="45" y="255" width="10" height="10" transform="rotate(0,50,260)"/><path d="M 45 265v 10h 10a 10 10, 0, 0, 0, -10 -10" transform="rotate(90,50,270)"/></g><svg version="1.1" id="katman_1" xmlns="http://www.w3.org/2000/svg" xmlns:xlink="http://www.w3.org/1999/xlink" x="117" y="117" viewBox="0 0 1024 1024" style="enable-background:new 0 0 1024 1024;" xml:space="preserve" width="66px" height="66px"><style type="text/css">
	.st0{fill:#3A76F0;}
	.st1{fill:#FFFFFF;}
</style><path class="st0" d="M28.4,241.6v540.7c0,117.7,95.5,213.2,213.2,213.2h540.7c117.7,0,213.2-95.5,213.2-213.2V241.6
	c0-117.7-95.5-213.2-213.2-213.2H241.6C123.9,28.4,28.4,123.9,28.4,241.6z"/><g><path class="st1" d="M430.1,180.9l7.7,31c-30.2,7.4-59.1,19.4-85.7,35.4L335.7,220C365,202.3,396.9,189.1,430.1,180.9z
		 M593.9,180.9l-7.7,31c30.2,7.4,59.1,19.4,85.7,35.4l16.5-27.4C659,202.3,627.2,189.1,593.9,180.9L593.9,180.9z M220,335.7
		c-17.7,29.3-30.9,61.2-39.1,94.4l31,7.7c7.4-30.2,19.4-59.1,35.4-85.7L220,335.7z M202.9,512c0-15.5,1.1-31,3.5-46.3l-31.6-4.8
		c-5.1,33.9-5.1,68.3,0,102.2l31.6-4.8C204.1,543,202.9,527.5,202.9,512L202.9,512z M688.3,804l-16.4-27.4
		c-26.6,16.1-55.4,28-85.6,35.4l7.7,31C627.2,834.8,659,821.7,688.3,804L688.3,804z M821.1,512c0,15.5-1.1,31-3.5,46.3l31.6,4.8
		c5.1-33.9,5.1-68.3,0-102.2l-31.6,4.8C819.9,481,821.1,496.5,821.1,512z M843.1,593.8l-31-7.7c-7.4,30.2-19.4,59.1-35.4,85.7
		l27.4,16.5C821.7,659,834.9,627.1,843.1,593.8L843.1,593.8z M558.3,817.6c-30.7,4.6-61.9,4.6-92.6,0l-4.8,31.6
		c33.9,5.1,68.3,5.1,102.2,0L558.3,817.6z M760.8,695.3c-18.4,25-40.5,47-65.5,65.4l19,25.7c27.6-20.3,51.9-44.5,72.3-72
		L760.8,695.3z M695.3,263.2c25,18.4,47.1,40.5,65.5,65.5l25.7-19.2c-20.3-27.5-44.6-51.8-72-72L695.3,263.2z M263.2,328.7
		c18.4-25,40.5-47.1,65.5-65.5l-19.2-25.7c-27.5,20.3-51.8,44.6-72,72L263.2,328.7z M804,335.7l-27.4,16.4
		c16.1,26.6,28,55.4,35.4,85.6l31-7.7C834.9,396.8,821.7,365,804,335.7L804,335.7z M465.7,206.4c30.7-4.6,61.9-4.6,92.6,0l4.8-31.6
		c-33.9-5.1-68.3-5.1-102.2,0L465.7,206.4z M279.6,795l-66,15.4l15.4-66l-31.1-7.3l-15.4,66c-2.5,10.8,0.7,22.1,8.5,29.9
		s19.1,11,29.9,8.5l66-15.1L279.6,795z M204.5,708.5l31.1,7.2l10.7-45.8c-15.5-26.1-27.1-54.4-34.4-83.9l-31,7.7
		c7,28.3,17.5,55.5,31.4,81L204.5,708.5z M353.7,777.8L308,788.5l7.2,31.1l33.7-7.8c25.6,13.9,52.8,24.5,81.1,31.4l7.7-31
		c-29.4-7.3-57.6-19-83.7-34.6L353.7,777.8z M512,234.9c-100.8,0.1-193.7,54.9-242.4,143.1s-45.7,196,8,281.4l-26.6,113.7
		l113.7-26.6c99.7,62.8,228.2,55.7,320.4-17.7s127.8-197.1,88.9-308.3C734.8,309.2,629.8,234.8,512,234.9z"/></g><path class="st0" d="M0,0"/></svg></svg></g></svg></svg>