<?xml version="1.0" encoding="UTF-8" standalone="no"?>
<!-- Created with Inkscape (http://www.inkscape.org/) -->

<svg
   width="180"
   height="180"
   viewBox="0 0 180 180"
   version="1.1"
   id="svg5"
   xml:space="preserve"
   inkscape:version="1.2.2 (732a01da63, 2022-12-09)"
   sodipodi:docname="logo-duck.svg"
   xmlns:inkscape="http://www.inkscape.org/namespaces/inkscape"
   xmlns:sodipodi="http://sodipodi.sourceforge.net/DTD/sodipodi-0.dtd"
   xmlns:xlink="http://www.w3.org/1999/xlink"
   xmlns="http://www.w3.org/2000/svg"
   xmlns:svg="http://www.w3.org/2000/svg"><sodipodi:namedview
     id="namedview7"
     pagecolor="#505050"
     bordercolor="#eeeeee"
     borderopacity="1"
     inkscape:showpageshadow="0"
     inkscape:pageopacity="0"
     inkscape:pagecheckerboard="0"
     inkscape:deskcolor="#505050"
     inkscape:document-units="px"
     showgrid="false"
     inkscape:zoom="2.325"
     inkscape:cx="185.16129"
     inkscape:cy="153.97849"
     inkscape:window-width="1920"
     inkscape:window-height="1017"
     inkscape:window-x="-8"
     inkscape:window-y="-8"
     inkscape:window-maximized="1"
     inkscape:current-layer="svg5" /><defs
     id="defs2"><linearGradient
       inkscape:collect="always"
       id="linearGradient2234"><stop
         style="stop-color:#5e40b4;stop-opacity:1;"
         offset="0"
         id="stop2230" /><stop
         style="stop-color:#040309;stop-opacity:0;"
         offset="1"
         id="stop2232" /></linearGradient><linearGradient
       inkscape:collect="always"
       id="linearGradient2162"><stop
         style="stop-color:#5e40b4;stop-opacity:1;"
         offset="0"
         id="stop2158" /><stop
         style="stop-color:#040309;stop-opacity:0;"
         offset="1"
         id="stop2160" /></linearGradient><linearGradient
       inkscape:collect="always"
       id="linearGradient16805"><stop
         style="stop-color:#53438c;stop-opacity:1;"
         offset="0"
         id="stop16801" /><stop
         style="stop-color:#453574;stop-opacity:1;"
         offset="1"
         id="stop16803" /></linearGradient><linearGradient
       inkscape:collect="always"
       id="linearGradient16797"><stop
         style="stop-color:#53438c;stop-opacity:1;"
         offset="0"
         id="stop16793" /><stop
         style="stop-color:#453574;stop-opacity:1;"
         offset="1"
         id="stop16795" /></linearGradient><linearGradient
       inkscape:collect="always"
       id="linearGradient16789"><stop
         style="stop-color:#211455;stop-opacity:1;"
         offset="0"
         id="stop16785" /><stop
         style="stop-color:#35217d;stop-opacity:1;"
         offset="1"
         id="stop16787" /></linearGradient><linearGradient
       inkscape:collect="always"
       id="linearGradient16773"><stop
         style="stop-color:#53438c;stop-opacity:1;"
         offset="0"
         id="stop16769" /><stop
         style="stop-color:#443472;stop-opacity:1;"
         offset="1"
         id="stop16771" /></linearGradient><linearGradient
       inkscape:collect="always"
       id="linearGradient16761"><stop
         style="stop-color:#3c2870;stop-opacity:1;"
         offset="0"
         id="stop16757" /><stop
         style="stop-color:#5e40b4;stop-opacity:1;"
         offset="1"
         id="stop16759" /></linearGradient><linearGradient
       inkscape:collect="always"
       id="linearGradient16753"><stop
         style="stop-color:#8b72e3;stop-opacity:1;"
         offset="0"
         id="stop16749" /><stop
         style="stop-color:#7253dd;stop-opacity:1;"
         offset="1"
         id="stop16751" /></linearGradient><inkscape:path-effect
       effect="powerstroke"
       id="path-effect2386"
       is_visible="true"
       lpeversion="1"
       offset_points="0.344543,3.2258065"
       not_jump="true"
       sort_points="true"
       interpolator_type="CentripetalCatmullRom"
       interpolator_beta="0.75"
       start_linecap_type="round"
       linejoin_type="spiro"
       miter_limit="4"
       scale_width="1"
       end_linecap_type="round" /><inkscape:path-effect
       effect="simplify"
       id="path-effect2384"
       is_visible="true"
       lpeversion="1"
       steps="1"
       threshold="0.0047745358"
       smooth_angles="0"
       helper_size="0"
       simplify_individual_paths="false"
       simplify_just_coalesce="false"
       step="1" /><inkscape:path-effect
       effect="powerstroke"
       id="path-effect2379"
       is_visible="true"
       lpeversion="1"
       offset_points="0.235559,3.2258065"
       not_jump="true"
       sort_points="true"
       interpolator_type="CentripetalCatmullRom"
       interpolator_beta="0.75"
       start_linecap_type="round"
       linejoin_type="spiro"
       miter_limit="4"
       scale_width="1"
       end_linecap_type="round" /><inkscape:path-effect
       effect="simplify"
       id="path-effect2377"
       is_visible="true"
       lpeversion="1"
       steps="1"
       threshold="0.0047745358"
       smooth_angles="0"
       helper_size="0"
       simplify_individual_paths="false"
       simplify_just_coalesce="false"
       step="1" /><linearGradient
       inkscape:collect="always"
       xlink:href="#linearGradient16753"
       id="linearGradient16755"
       x1="119.54517"
       y1="87.979424"
       x2="167.1514"
       y2="100.6676"
       gradientUnits="userSpaceOnUse" /><linearGradient
       inkscape:collect="always"
       xlink:href="#linearGradient16761"
       id="linearGradient16763"
       x1="35.931263"
       y1="104.40706"
       x2="-3.4819486"
       y2="122.68662"
       gradientUnits="userSpaceOnUse" /><linearGradient
       inkscape:collect="always"
       xlink:href="#linearGradient16773"
       id="linearGradient16775"
       x1="41.010544"
       y1="35.053951"
       x2="66.970917"
       y2="16.774384"
       gradientUnits="userSpaceOnUse" /><linearGradient
       inkscape:collect="always"
       xlink:href="#linearGradient16789"
       id="linearGradient16791"
       x1="69.782967"
       y1="76.016609"
       x2="46.397583"
       y2="10.210162"
       gradientUnits="userSpaceOnUse" /><linearGradient
       inkscape:collect="always"
       xlink:href="#linearGradient16797"
       id="linearGradient16799"
       x1="65.155098"
       y1="154.37532"
       x2="80.617218"
       y2="142.54736"
       gradientUnits="userSpaceOnUse" /><linearGradient
       inkscape:collect="always"
       xlink:href="#linearGradient16805"
       id="linearGradient16807"
       x1="96.048386"
       y1="161.80424"
       x2="112.98685"
       y2="147.82574"
       gradientUnits="userSpaceOnUse" /><linearGradient
       inkscape:collect="always"
       xlink:href="#linearGradient2162"
       id="linearGradient2164"
       x1="248.3911"
       y1="65.008133"
       x2="110.18059"
       y2="104.24115"
       gradientUnits="userSpaceOnUse" /><linearGradient
       inkscape:collect="always"
       xlink:href="#linearGradient2234"
       id="linearGradient2236"
       x1="191.06351"
       y1="4.2575707"
       x2="145.76427"
       y2="66.908752"
       gradientUnits="userSpaceOnUse" /></defs><g
     inkscape:label="Körper"
     inkscape:groupmode="layer"
     id="layer1"
     style="display:inline"><path
       style="display:inline;fill:url(#linearGradient16799);fill-opacity:1;stroke:#000000;stroke-width:5.34;stroke-linecap:round;stroke-linejoin:round;stroke-miterlimit:4.1;stroke-opacity:0"
       d="m 76.793317,145.6792 c 0.819143,-0.61465 1.309691,-1.99602 1.52066,-4.02974 l 7.3752,0.22809 c -0.163018,1.79257 -0.166937,3.78511 -0.532231,6.38678 0.739987,5.3698 0.146685,8.16317 -1.140495,8.66776 -2.597121,1.21746 -11.985179,8.00408 -18.780148,5.85454 -0.600942,-1.4252 -0.02461,-3.29187 0.988429,-5.32231 -3.09839,0.1585 -6.568643,1.18468 -9.123959,0.076 -0.143628,-1.12937 0.794488,-2.88502 4.485947,-6.23471 -2.139058,-0.4524 -4.026715,-0.99907 -4.56198,-2.05289 -1.521601,-1.77054 7.163659,-2.81202 19.768577,-3.57352 z"
       id="path2162"
       sodipodi:nodetypes="ccccccccccc"
       inkscape:label="Fuß links" /><path
       style="display:inline;fill:url(#linearGradient16755);fill-opacity:1;stroke:#000000;stroke-width:5.34;stroke-linecap:round;stroke-linejoin:round;stroke-miterlimit:4.1;stroke-opacity:0"
       d="m 60.859147,142.76375 c 21.604509,3.41403 38.096696,4.64434 52.201903,2.38322 21.79295,-14.60661 52.00348,-40.53442 53.14706,-73.599929 4.54464,-5.095193 5.48333,-10.949533 4.25785,-17.259488 -4.06473,0.131691 -8.04898,1.068221 -12.01321,2.204957 0.35173,-3.735047 -0.76085,-6.196793 -2.73719,-7.907431 -3.26896,3.802558 -8.14853,4.383901 -12.77354,5.474375 -26.57976,-2.832119 -48.388497,-0.893224 -71.16688,0.07603 L 42.882605,69.798282 c -0.81696,0.946029 -2.545289,2.034723 -4.96855,4.541215 z"
       id="path2159"
       sodipodi:nodetypes="ccccccccccc"
       inkscape:label="Körper hinten" /><path
       style="display:inline;fill:url(#linearGradient16807);fill-opacity:1;stroke:#000000;stroke-width:5.34;stroke-linecap:round;stroke-linejoin:round;stroke-miterlimit:4.1;stroke-opacity:0"
       d="m 100.74371,144.08251 c 2.36282,-4.47512 6.55059,-8.68081 12.31734,-0.15207 -0.41252,2.61352 -1.04386,5.19057 -2.66115,7.6033 2.18565,7.66245 8.50265,21.42812 6.6909,23.34213 -5.77251,0.9223 -7.45428,-2.92793 -9.73222,-6.08264 -2.02293,-1.03218 -5.05367,5.35778 -8.515697,6.76694 -3.333485,0.1066 -1.666989,-5.54782 -3.801649,-9.35206 -4.28543,1.32235 -9.601329,3.62832 -9.656189,0.9124 1.908102,-5.43132 17.386215,-10.34049 15.358665,-23.038 z"
       id="path2164"
       sodipodi:nodetypes="ccccccccc"
       inkscape:label="Fuß rechts" /><path
       style="display:inline;fill:url(#linearGradient16763);fill-opacity:1;fill-rule:nonzero;stroke:#000000;stroke-width:5.34;stroke-linecap:round;stroke-linejoin:round;stroke-miterlimit:4.1;stroke-opacity:0"
       d="M 41.361945,71.166876 C 30.253618,77.27949 21.507331,87.40157 21.13717,100.97181 20.533135,123.11595 51.828187,147.3483 64.475973,142.02962 87.058096,134.93522 103.60898,102.88096 84.24455,80.594966 88.296977,71.91545 87.075353,61.555848 78.161911,57.333349 l -1.126295,5.252417 c 11.058771,22.612322 -34.088262,26.976139 -35.673671,8.58111 z"
       id="path454"
       sodipodi:nodetypes="csccccc"
       inkscape:label="Brustkorb" /><path
       style="display:inline;fill:url(#linearGradient16775);fill-opacity:1;stroke:#5f5f5f;stroke-width:5.34;stroke-linecap:round;stroke-linejoin:round;stroke-miterlimit:4.1;stroke-opacity:0"
       d="m 31.55914,34.301075 c 2.476218,-6.6234 6.477113,-11.999338 21.397849,-8.44086 L 69.247312,40.430108 C 61.239988,46.21586 53.342232,52.275535 43.947067,54.591685 27.232447,63.266007 6.6838172,58.639332 14.623656,47.903226 17.838192,44.758105 22.367913,40.861449 31.55914,34.301075 Z"
       id="path2157"
       sodipodi:nodetypes="cccccc"
       inkscape:label="Schnabel" /></g><g
     inkscape:groupmode="layer"
     id="layer2"
     inkscape:label="Kopf"
     style="display:inline"><path
       style="display:inline;fill:url(#linearGradient16791);fill-opacity:1;stroke:#000000;stroke-width:5.34;stroke-linecap:round;stroke-linejoin:round;stroke-miterlimit:4.1;stroke-opacity:0"
       d="m 42.882605,69.798282 c 12.712968,8.132646 26.691484,6.716924 34.153011,-7.212516 0.358967,-0.670133 0.831146,-1.922145 1.126295,-2.671772 0.686208,-6.617032 1.461079,-11.83402 2.433055,-16.879323 2.291352,-6.565846 2.337643,-13.381143 0.76033,-20.376841 -2.2214,-8.5479 -8.542428,-13.9356702 -17.639653,-17.1834549 -4.533588,-1.0512412 -8.981798,-1.3767622 -13.229739,0 C 39.208813,8.5919139 34.837165,15.454777 31.933855,23.114028 31.270999,25.79233 31.308076,30.466 31.620499,34.29628 c 0.61452,-0.241668 0.686834,-0.04045 7.254627,-6.529612 1.932235,-1.095848 5.773877,-0.448076 9.168498,1.75258 3.553549,8.818805 6.152903,9.784272 14.652096,8.855141 -0.01678,10.124442 -13.533096,10.328287 -18.748653,16.217296 -1.400805,5.163955 -1.195318,10.181884 -1.064462,15.206597 z"
       id="path1121"
       sodipodi:nodetypes="cscccccccccccc"
       inkscape:label="Kopf" /><path
       style="fill:#0e091a;fill-opacity:1;stroke:#000000;stroke-width:5.34;stroke-linecap:round;stroke-linejoin:round;stroke-miterlimit:4.1;stroke-opacity:0"
       d="m 58.548387,24.193548 c 2.37348,-4.744789 7.005926,-3.392595 8.333333,-0.05376 0.495505,1.678488 0.916222,2.316308 0.483871,5.268817 -1.321765,4.438232 -7.11944,4.71199 -8.655913,0.107523 -0.707272,-1.439093 -0.828357,-3.676819 -0.161291,-5.32258 z"
       id="path1883"
       sodipodi:nodetypes="ccccc"
       inkscape:label="Auge rechts" /><path
       style="fill:#0e091a;fill-opacity:1;stroke:#000000;stroke-width:5.34;stroke-linecap:round;stroke-linejoin:round;stroke-miterlimit:4.1;stroke-opacity:0"
       d="m 34.193548,30.376344 c 1.505685,-0.01884 2.505112,-1.74299 2.7957,-3.548387 0.195597,-1.215226 0.357654,-2.688379 -0.161294,-3.870968 -0.315712,-0.719451 -0.880993,-1.666666 -1.666667,-1.666666 -1.11515,0 -1.907743,1.114105 -2.365591,2.365591 -0.581715,1.330038 -0.556504,2.902846 -0.430108,4.516129 0.351578,1.250252 0.873491,2.216246 1.82796,2.204301 z"
       id="path2155"
       sodipodi:nodetypes="asaacca"
       inkscape:label="Auge links" /></g><g
     inkscape:groupmode="layer"
     id="layer4"
     inkscape:label="Details"
     style="display:inline"><path
       style="fill:url(#linearGradient2164);fill-opacity:1;stroke:#000000;stroke-width:5.34;stroke-linecap:round;stroke-linejoin:round;stroke-miterlimit:4.1;stroke-opacity:0"
       d="m 107.96684,94.889169 c 14.89115,1.430112 30.62714,-1.785962 44.7074,-6.842969 -3.16968,23.7383 -28.92719,32.63515 -48.96524,43.3388 3.23582,-11.46661 6.19308,-23.04036 4.25784,-36.495831 z"
       id="path2093"
       sodipodi:nodetypes="cccc"
       inkscape:label="Flügel" /><path
       style="fill:url(#linearGradient2236);fill-opacity:1;stroke:#000000;stroke-width:5.34;stroke-linecap:round;stroke-linejoin:round;stroke-miterlimit:4.1;stroke-opacity:0"
       d="m 124.38997,91.239585 c 16.84219,-7.955677 43.56944,-11.826746 43.49087,-33.60658 -3.90062,1.573277 -8.08667,2.918206 -13.99007,2.889253 2.655,-2.505151 1.84377,-4.577024 1.36859,-6.690902 -18.86858,5.281853 -31.66089,3.377102 -48.96524,5.322308 5.70459,1.138371 11.3742,3.984455 19.46444,2.737188 -3.05645,2.360426 -8.56786,3.902536 -13.99007,5.474375 12.4461,0.72333 22.16261,0.08187 30.56526,-1.216527 -2.01522,2.382367 -3.37682,4.764733 -9.27602,7.1471 6.91935,0.963781 12.67,-0.409824 18.39998,-1.824791 -13.88223,8.787039 -20.60748,13.279096 -27.06774,19.768576 z"
       id="path2096"
       sodipodi:nodetypes="ccccccccccc" /></g></svg>
